[img]http://img38.imageshack.us/img38/7591/chrismas.jpg[/img]
[code]
Christmas in Wonderland 2007 DVDRIP XViD AC3-26K

Imdb: 
http://www.imdb.com/title/tt0991150/

Plot:
Three kids and their Dad move from L.A to Edmonton. When they go shopping at West Edmonton Mall they 

find counterfeit cash. They inadvertently help catch the crooks, and later make a discovery about 

Santa.

Sources:
DVDR THNXS

Notes:
Enjoy..!

Greetz:
Xtreme 

Encode|FYA|ILLUMANTI|CM8|RX|VISION|HDSCENE|NIGHTMAREZ|xTriLL|DTRG|CRYS|REMIXHD|BIDA|RX|REFILL|INSPiRAL

|SIC|ZOMBIESZ|HOPE|Anonymous|GooN
To all the people who have helped me :P you know who you are

Anything to offer email us @: 26k@hushmail.me

Video
ID                                       : 0
Format                                   : MPEG-4 Visual
Format profile                           : Advanced Simple@L5
Format settings, BVOP                    : 1
Format settings, QPel                    : No
Format settings, GMC                     : No warppoints
Format settings, Matrix                  : Default (H.263)
Codec ID                                 : XVID
Codec ID/Hint                            : XviD
Duration                                 : 1h 34mn
Bit rate                                 : 2 100 Kbps
Width                                    : 720 pixels
Height                                   : 320 pixels
Display aspect ratio                     : 2.25:1
Frame rate                               : 25.000 fps
Color space                              : YUV
Chroma subsampling                       : 4:2:0
Bit depth                                : 8 bits
Scan type                                : Progressive
Compression mode                         : Lossy
Bits/(Pixel*Frame)                       : 0.365
Stream size                              : 1.39 GiB (87%)
Writing library                          : XviD 1.2.1 (UTC 2008-12-04)

Audio
ID                                       : 1
Format                                   : AC-3
Format/Info                              : Audio Coding 3
Mode extension                           : CM (complete main)
Codec ID                                 : 2000
Duration                                 : 1h 34mn
Bit rate mode                            : Constant
Bit rate                                 : 320 Kbps
Channel(s)                               : 6 channels
Channel positions                        : Front: L C R, Side: L R, LFE
Sampling rate                            : 44.1 KHz
Bit depth                                : 16 bits
Compression mode                         : Lossy
Stream size                              : 217 MiB (13%)
Alignment                                : Aligned on interleaves
Interleave, duration                     : 70 ms (1.74 video frames)
Interleave, preload duration             : 208 ms
Title                                    : Title 01

[/code]
Screens:
[img]http://img267.imageshack.us/img267/9979/vlcsnap2012020813h27m55.png[/img]
[img]http://img252.imageshack.us/img252/3636/vlcsnap2012020813h28m15.png[/img]
[img]http://img837.imageshack.us/img837/1226/vlcsnap2012020813h28m20.png[/img]
[img]http://img12.imageshack.us/img12/8766/vlcsnap2012020813h28m23.png[/img]

[img]http://img851.imageshack.us/img851/5503/26ks.jpg[/img]
Thank you smallz for banner!